<?xml version="1.0" encoding="UTF-8" standalone="no"?>
<!-- Created with Inkscape (http://www.inkscape.org/) -->

<svg
   xmlns:dc="http://purl.org/dc/elements/1.1/"
   xmlns:cc="http://creativecommons.org/ns#"
   xmlns:rdf="http://www.w3.org/1999/02/22-rdf-syntax-ns#"
   xmlns:svg="http://www.w3.org/2000/svg"
   xmlns="http://www.w3.org/2000/svg"
   xmlns:sodipodi="http://sodipodi.sourceforge.net/DTD/sodipodi-0.dtd"
   xmlns:inkscape="http://www.inkscape.org/namespaces/inkscape"
   width="157.75211"
   height="141.6911"
   id="svg2"
   version="1.1"
   inkscape:version="0.48.4 r9939"
   sodipodi:docname="New document 1">
  <defs
     id="defs4">
    <inkscape:path-effect
       fuse_tolerance="0"
       vertical_pattern="false"
       prop_units="false"
       tang_offset="0"
       normal_offset="0"
       spacing="0"
       scale_y_rel="false"
       prop_scale="1"
       copytype="single_stretched"
       pattern="m 325.77607,489.26358 c 0,-2.76 2.24,-5 5,-5 2.76,0 5,2.24 5,5 0,2.76 -2.24,5 -5,5 -2.76,0 -5,-2.24 -5,-5 z"
       is_visible="true"
       id="path-effect3857"
       effect="skeletal" />
    <inkscape:path-effect
       is_visible="true"
       id="path-effect3855"
       effect="spiro" />
    <inkscape:path-effect
       effect="skeletal"
       id="path-effect3829"
       is_visible="true"
       pattern="M 2,5 C 2,2.24 4.24,0 7,0 9.76,0 12,2.24 12,5 12,7.76 9.76,10 7,10 4.24,10 2,7.76 2,5 z"
       copytype="single_stretched"
       prop_scale="1"
       scale_y_rel="false"
       spacing="0"
       normal_offset="0"
       tang_offset="0"
       prop_units="false"
       vertical_pattern="false"
       fuse_tolerance="0" />
    <inkscape:path-effect
       effect="spiro"
       id="path-effect3827"
       is_visible="true" />
    <inkscape:path-effect
       effect="skeletal"
       id="path-effect3811"
       is_visible="true"
       pattern="M 0,5 C 0,2.24 2.24,0 5,0 7.76,0 10,2.24 10,5 10,7.76 7.76,10 5,10 2.24,10 0,7.76 0,5 z"
       copytype="single_stretched"
       prop_scale="1"
       scale_y_rel="false"
       spacing="0"
       normal_offset="0"
       tang_offset="0"
       prop_units="false"
       vertical_pattern="false"
       fuse_tolerance="0" />
    <inkscape:path-effect
       effect="spiro"
       id="path-effect3809"
       is_visible="true" />
    <inkscape:path-effect
       effect="skeletal"
       id="path-effect3805"
       is_visible="true"
       pattern="M 0,5 C 0,2.24 2.24,0 5,0 7.76,0 10,2.24 10,5 10,7.76 7.76,10 5,10 2.24,10 0,7.76 0,5 z"
       copytype="single_stretched"
       prop_scale="1"
       scale_y_rel="false"
       spacing="0"
       normal_offset="0"
       tang_offset="0"
       prop_units="false"
       vertical_pattern="false"
       fuse_tolerance="0" />
    <inkscape:path-effect
       effect="spiro"
       id="path-effect3803"
       is_visible="true" />
    <inkscape:path-effect
       effect="skeletal"
       id="path-effect3799"
       is_visible="true"
       pattern="M 0,5 C 0,2.24 2.24,0 5,0 7.76,0 10,2.24 10,5 10,7.76 7.76,10 5,10 2.24,10 0,7.76 0,5 z"
       copytype="single_stretched"
       prop_scale="1"
       scale_y_rel="false"
       spacing="0"
       normal_offset="0"
       tang_offset="0"
       prop_units="false"
       vertical_pattern="false"
       fuse_tolerance="0" />
    <inkscape:path-effect
       effect="spiro"
       id="path-effect3797"
       is_visible="true" />
    <inkscape:path-effect
       effect="skeletal"
       id="path-effect3793"
       is_visible="true"
       pattern="M 0,5 C 0,2.24 2.24,0 5,0 7.76,0 10,2.24 10,5 10,7.76 7.76,10 5,10 2.24,10 0,7.76 0,5 z"
       copytype="single_stretched"
       prop_scale="1"
       scale_y_rel="false"
       spacing="0"
       normal_offset="0"
       tang_offset="0"
       prop_units="false"
       vertical_pattern="false"
       fuse_tolerance="0" />
    <inkscape:path-effect
       effect="spiro"
       id="path-effect3791"
       is_visible="true" />
    <inkscape:path-effect
       effect="skeletal"
       id="path-effect3787"
       is_visible="true"
       pattern="M 0,5 C 0,2.24 2.24,0 5,0 7.76,0 10,2.24 10,5 10,7.76 7.76,10 5,10 2.24,10 0,7.76 0,5 z"
       copytype="single_stretched"
       prop_scale="1"
       scale_y_rel="false"
       spacing="0"
       normal_offset="0"
       tang_offset="0"
       prop_units="false"
       vertical_pattern="false"
       fuse_tolerance="0" />
    <inkscape:path-effect
       effect="spiro"
       id="path-effect3785"
       is_visible="true" />
    <inkscape:path-effect
       effect="spiro"
       id="path-effect3827-0"
       is_visible="true" />
    <inkscape:path-effect
       effect="skeletal"
       id="path-effect3829-9"
       is_visible="true"
       pattern="m -403.04731,-477.86246 c 0,-2.76 2.24,-5 5,-5 2.76,0 5,2.24 5,5 0,2.76 -2.24,5 -5,5 -2.76,0 -5,-2.24 -5,-5 z"
       copytype="single_stretched"
       prop_scale="1"
       scale_y_rel="false"
       spacing="0"
       normal_offset="0"
       tang_offset="0"
       prop_units="false"
       vertical_pattern="false"
       fuse_tolerance="0" />
  </defs>
  <sodipodi:namedview
     id="base"
     pagecolor="#ffffff"
     bordercolor="#666666"
     borderopacity="1.0"
     inkscape:pageopacity="0.0"
     inkscape:pageshadow="2"
     inkscape:zoom="1.979899"
     inkscape:cx="41.339042"
     inkscape:cy="9.9360918"
     inkscape:document-units="px"
     inkscape:current-layer="layer1"
     showgrid="false"
     inkscape:object-paths="false"
     fit-margin-top="0"
     fit-margin-left="0"
     fit-margin-right="0"
     fit-margin-bottom="0"
     inkscape:window-width="1920"
     inkscape:window-height="1006"
     inkscape:window-x="0"
     inkscape:window-y="25"
     inkscape:window-maximized="1" />
  <metadata
     id="metadata7">
    <rdf:RDF>
      <cc:Work
         rdf:about="">
        <dc:format>image/svg+xml</dc:format>
        <dc:type
           rdf:resource="http://purl.org/dc/dcmitype/StillImage" />
        <dc:title></dc:title>
      </cc:Work>
    </rdf:RDF>
  </metadata>
  <g
     inkscape:label="Layer 1"
     inkscape:groupmode="layer"
     id="layer1"
     transform="translate(-328.95847,-482.75736)">
    <path
       style="fill:#ff0000"
       d="m 395.21398,591.79418 c -4.48921,-6.1805 -11.14114,-13.29421 -26.36731,-23.97138 -19.12707,-13.41263 -25.92987,-22.46259 -26.72979,-35.55939 -0.64048,-10.48635 2.10209,-17.97085 9.22634,-25.17882 6.06418,-6.13545 12.5915,-9.48899 20.5795,-10.57315 11.09323,-1.50561 20.65375,1.21244 30.68655,8.72419 5.48023,4.10315 6.31931,4.4438 7.1641,2.90848 0.52628,-0.95644 3.62708,-3.49428 6.89067,-5.63963 20.66217,-13.58245 48.35105,-7.31927 58.24684,13.17534 2.31466,4.79376 2.79419,7.12846 2.77315,13.50143 -0.0213,6.43705 -0.49784,8.6264 -2.8953,13.30062 -3.77505,7.36006 -11.78806,15.77884 -22.07699,23.19496 -25.59121,18.44577 -30.97283,23.15731 -37.36951,32.71645 -5.43095,10.11143 -13.75788,17.26184 -11.41014,15.71865 -2.81169,-7.64899 -0.8405,-11.42356 -8.71811,-22.31775 z"
       id="path3859"
       inkscape:connector-curvature="0"
       sodipodi:nodetypes="csssssssssssccc" />
    <path
       style="fill:#000000;fill-rule:evenodd;stroke:none"
       d="m 405.15445,503.84935 c -0.23393,-0.18294 -0.10592,-0.83679 0.42754,-1.90358 0.53346,-1.06679 1.47618,-2.54701 2.93645,-4.28762 1.46028,-1.7406 3.4428,-3.74248 6.05589,-5.74626 2.61309,-2.00378 5.86127,-4.01003 9.78291,-5.64151 3.57647,-1.48545 7.69685,-2.6448 12.24343,-3.1838 4.54658,-0.539 9.52073,-0.45627 14.65922,0.54806 4.69092,0.91066 9.49886,2.6151 14.06351,5.22936 4.56465,2.61425 8.88506,6.139 12.48522,10.61721 3.19969,3.99718 5.71891,8.72241 7.24961,13.88985 1.5307,5.16745 2.07178,10.77602 1.31007,16.43322 -0.37338,2.54895 -0.99061,5.04785 -1.82376,7.47163 -1.77071,5.15134 -4.46041,9.80995 -7.635,13.83195 -4.89254,6.22172 -10.67624,11.07899 -16.4092,15.11025 -6.67783,4.73803 -13.27738,8.51263 -19.15716,12.17134 -5.87978,3.65871 -11.04254,7.20397 -15.28352,10.95765 0,0 0,0 0,0 -4.05469,3.55197 -7.33745,7.25968 -9.98338,10.7268 -2.64593,3.46712 -4.65928,6.69563 -6.22617,9.40506 -1.56689,2.70943 -2.69299,4.90229 -3.54029,6.37926 -0.84731,1.47697 -1.422,2.23939 -1.77208,2.13837 -0.35008,-0.10102 -0.4584,-1.06269 -0.24485,-2.80335 0.21356,-1.74067 0.75443,-4.26239 1.82854,-7.3988 1.07411,-3.13641 2.68732,-6.89005 5.08538,-10.97349 2.39805,-4.08343 5.58618,-8.49811 9.76596,-12.80432 0,-10e-6 10e-6,-10e-6 10e-6,-10e-6 4.39891,-4.49138 9.73945,-8.72197 15.60284,-12.83292 5.86339,-4.11095 12.24664,-8.10017 18.32086,-12.65524 5.17315,-3.9166 10.21319,-8.26052 14.15893,-13.48515 2.52806,-3.36342 4.68337,-7.09036 6.0606,-11.03164 0.64801,-1.85443 1.11365,-3.73055 1.36849,-5.60963 0.62439,-4.11276 0.24496,-8.33462 -0.87082,-12.29167 -1.11578,-3.95705 -2.96742,-7.64796 -5.31731,-10.7878 -2.64988,-3.5596 -5.98674,-6.47303 -9.58523,-8.73101 -3.59849,-2.25799 -7.45802,-3.86032 -11.26573,-4.85238 -4.19115,-1.08443 -8.35835,-1.44789 -12.24899,-1.30298 -3.89065,0.14491 -7.50604,0.7978 -10.72631,1.74281 -3.53264,1.03409 -6.60725,2.4181 -9.20429,3.8338 -2.59705,1.4157 -4.72069,2.86405 -6.42514,4.10787 -1.70445,1.24382 -2.99444,2.28376 -3.93033,2.95082 -0.93589,0.66705 -1.52197,0.96079 -1.7559,0.77785 z"
       id="path3825"
       inkscape:path-effect="#path-effect3827;#path-effect3829"
       inkscape:original-d="m 405.15445,503.84935 c 10.05507,-14.21651 25.22947,-16.16244 45.1982,-16.16244 32.87814,0 37.13588,19.73866 31.07375,41.41625 -9.15228,32.72766 -43.31841,36.70718 -57.91018,57.5787 -6.84848,9.79579 -18.97848,21.70334 -18.97848,31.31473"
       inkscape:connector-curvature="0"
       sodipodi:nodetypes="csssc" />
    <path
       style="fill:#000000;fill-rule:evenodd;stroke:none"
       d="m 407.48754,505.25047 c -0.24604,0.16996 -0.81868,-0.16378 -1.72506,-0.88927 -0.90637,-0.7255 -2.15164,-1.8426 -3.81451,-3.16981 -1.66288,-1.32722 -3.74902,-2.86574 -6.32605,-4.35576 -2.57704,-1.49003 -5.64989,-2.93307 -9.19452,-3.97007 -3.23348,-0.94951 -6.87844,-1.55933 -10.7859,-1.5969 -3.90746,-0.0376 -8.07895,0.49752 -12.20144,1.82948 -4.06649,1.3128 -8.12643,3.44185 -11.76819,6.36294 -3.64176,2.92108 -6.86441,6.63356 -9.1059,10.98757 -1.99161,3.8303 -3.2471,8.22713 -3.582,12.77544 -0.3349,4.54831 0.25097,9.2459 1.94524,13.55649 0.005,0.0132 0.01,0.0263 0.015,0.0395 1.86125,4.8935 5.10231,9.28749 8.80596,13.14911 3.93214,4.08039 8.52439,7.52677 13.16425,10.77495 5.31693,3.67032 10.77455,7.13138 15.77166,10.82027 4.9971,3.6889 9.5319,7.60474 13.27991,11.85507 4.52954,5.21085 7.61166,10.7068 9.64773,15.76254 2.03608,5.05574 3.03543,9.67633 3.47237,13.47107 0.43694,3.79474 0.32193,6.77221 0.0525,8.77111 -0.26945,1.99891 -0.68368,3.02709 -1.07492,3.02426 -0.39124,-0.003 -0.74047,-1.03268 -1.19663,-2.91498 -0.45616,-1.8823 -1.03069,-4.6238 -2.05844,-8.00762 -1.02776,-3.38381 -2.5185,-7.41852 -4.83217,-11.72459 -2.31368,-4.30608 -5.45691,-8.88954 -9.69084,-13.09543 -3.47166,-3.50751 -7.73469,-6.7406 -12.61962,-9.95193 -4.88493,-3.21132 -10.39284,-6.40254 -16.05929,-10.13941 -4.99458,-3.24928 -10.14829,-6.98688 -14.89256,-11.7139 -4.50851,-4.47454 -8.52422,-9.96235 -11.08993,-16.45775 -0.007,-0.0175 -0.0138,-0.035 -0.0207,-0.0524 -2.24049,-5.85456 -2.99707,-12.03184 -2.49798,-17.95322 0.49909,-5.92139 2.25276,-11.58475 4.99511,-16.54657 3.11158,-5.58794 7.34236,-10.16677 12.04179,-13.64121 4.69944,-3.47444 9.86568,-5.84517 14.99621,-7.1715 5.1743,-1.3358 10.24933,-1.62993 14.89705,-1.21196 4.64773,0.41798 8.86973,1.54641 12.51665,3.05727 3.99518,1.65916 7.27293,3.75398 9.8801,5.85489 2.60717,2.10091 4.54916,4.20891 5.95711,6.03728 1.40795,1.82837 2.28747,3.37856 2.77036,4.4875 0.4829,1.10895 0.57369,1.77761 0.32765,1.94757 z"
       id="path3825-8"
       inkscape:path-effect="#path-effect3855;#path-effect3857"
       inkscape:original-d="m 407.48754,505.25047 c -10.05507,-14.21651 -25.22947,-16.16244 -45.1982,-16.16244 -32.87814,0 -32.08512,27.81988 -26.02299,49.49747 9.15228,32.72766 38.26765,26.60565 52.85942,47.47717 6.84848,9.79579 14.93787,28.77441 14.93787,38.3858"
       inkscape:connector-curvature="0"
       sodipodi:nodetypes="csssc" />
  </g>
</svg>
